<svg xmlns="http://www.w3.org/2000/svg" x="0px" y="0px" viewBox="0 0 48 48" style="enable-background:new 0 0 48 48;" xml:space="preserve">
<path fill="#666666" d="M40.8,20.3c0-7.2-5.8-13-13-13c-5.5,0-10.3,3.5-12.1,8.4c-4.9,1.9-8.4,6.6-8.4,12.1c0,7.2,5.8,13,13,13
	c5.5,0,10.3-3.5,12.1-8.4C37.3,30.5,40.8,25.8,40.8,20.3z M20.8,20.8c3.4,0.3,6.2,3,6.4,6.4C23.8,27,21,24.2,20.8,20.8z M13.3,27.8
	c0-1.8,0.7-3.4,1.8-4.7c1.1,4.9,5,8.8,9.9,9.9c-1.2,1.1-2.9,1.8-4.7,1.8C16.4,34.8,13.3,31.6,13.3,27.8z M32.9,24.9
	c-1.1-4.9-5-8.8-9.9-9.9c1.2-1.1,2.9-1.8,4.7-1.8c3.9,0,7,3.1,7,7C34.8,22.1,34.1,23.7,32.9,24.9z"/>
</svg>
