<svg xmlns="http://www.w3.org/2000/svg" viewBox="0 0 64 64">
	<path fill="#F9F9F9" d="M32,0C14.33,0,0,14.33,0,32c0,17.67,14.33,32,32,32s32-14.33,32-32C64,14.33,49.67,0,32,0z M33.25,44.19
		c0.3,0.27,0.81,0.41,1.51,0.41c0.58,0,1.09-0.1,1.54-0.29c-0.13,1.6-0.7,2.83-1.7,3.67c-1.01,0.85-2.2,1.27-3.58,1.27
		c-1.54,0-2.78-0.48-3.72-1.44c-0.94-0.96-1.42-2.4-1.42-4.32c0-0.8,0.13-1.84,0.38-3.12l3.26-15.41h6.91l-3.46,16.32
		c-0.13,0.48-0.19,0.99-0.19,1.54C32.79,43.46,32.94,43.92,33.25,44.19z M36.99,21.27c-0.75,0.74-1.66,1.1-2.71,1.1
		c-1.06,0-1.95-0.37-2.69-1.1c-0.74-0.74-1.1-1.63-1.1-2.69c0-1.06,0.37-1.96,1.1-2.71c0.74-0.75,1.63-1.13,2.69-1.13
		c1.06,0,1.96,0.38,2.71,1.13c0.75,0.75,1.13,1.66,1.13,2.71C38.12,19.64,37.74,20.54,36.99,21.27z"/>
</svg>

