<svg xmlns="http://www.w3.org/2000/svg" viewBox="0 0 1020.5 907.1">
  <defs/>
  <linearGradient id="a" x1="1023.3563" x2="42.2623" y1="912.4232" y2="-68.6708" gradientUnits="userSpaceOnUse">
    <stop offset="0" stop-color="#38194a"/>
    <stop offset="1" stop-color="#0c4586"/>
  </linearGradient>
  <path fill="url(#a)" d="M207.8 501.2c-3.6.4-7.1.6-10.8.6-35.5 0-68.8-18.3-87.9-48.2 19.1-29.8 52.4-48.2 87.9-48.2 3.6 0 7.2.2 10.7.6-15.6 10.1-25.9 27.6-25.9 47.6.1 19.9 10.4 37.5 26 47.6zm521.5-296.9c-19.1 0-36.9 10.3-46.5 26.9-2.3 4.1-1 9.3 3.1 11.6 1.3.8 2.8 1.1 4.2 1.1 2.9 0 5.8-1.5 7.3-4.2 6.6-11.4 18.7-18.4 31.8-18.4 13.1 0 25.3 7.1 31.8 18.4 2.3 4.1 7.5 5.5 11.6 3.1s5.4-7.6 3.1-11.6c-9.5-16.6-27.3-26.9-46.4-26.9zm172.5 207.4c1.3 13.8 1.9 27.8 1.9 41.9 0 250.5-202.3 453.5-451.9 453.5C202.3 907.1 0 704 0 453.5 0 203.1 202.3 0 451.9 0c98.4 0 189.5 31.6 263.7 85.2 32-24.9 72.1-39.7 115.6-39.7 104.3 0 189.2 85.2 189.2 189.9.1 79.8-49.1 148.1-118.6 176.3zm-598.5 41.8c0-1.5-.4-3-1.1-4.3-21.7-37.6-62-60.9-105.2-60.9s-83.5 23.3-105.2 60.9c-.7 1.3-1.1 2.8-1.1 4.3s.4 3 1.1 4.3c21.7 37.6 62 60.9 105.2 60.9s83.5-23.4 105.2-60.9c.7-1.3 1.1-2.8 1.1-4.3zm369.3-7.3c-4.1-2.4-9.2-1-11.6 3.1-18.6 32.4-53.3 52.4-90.5 52.4s-71.9-20.1-90.5-52.4c-2.3-4.1-7.5-5.5-11.6-3.1-4 2.4-5.4 7.6-3.1 11.6 21.7 37.6 62 60.9 105.2 60.9s83.5-23.4 105.2-60.9c2.3-4.1 1-9.3-3.1-11.6zm330.9-210.7c0-95.3-77.3-172.9-172.3-172.9S659 140.1 659 235.5c0 95.3 77.3 172.9 172.3 172.9s172.2-77.6 172.2-172.9zm-78.3-4.3c.7 1.3 1.1 2.8 1.1 4.3s-.4 3-1.1 4.3c-9.6 16.6-27.4 26.9-46.5 26.9s-36.9-10.3-46.5-26.9c-1.5-2.6-1.5-5.9 0-8.5 9.6-16.6 27.4-26.9 46.5-26.9s36.9 10.2 46.5 26.8zm-17.5 4.3c-6.7-8.6-16.9-13.8-27.9-14.1 3.1 3.9 5 8.8 5 14.1 0 5.4-1.9 10.3-5 14.1 10.9-.3 21.2-5.6 27.9-14.1z"/>
  <linearGradient id="b" x1="-170.2284" x2="994.8908" y1="-281.1615" y2="883.9577" gradientUnits="userSpaceOnUse">
    <stop offset="0" stop-color="#fcff5b"/>
    <stop offset="1" stop-color="#fff9ff" stop-opacity="0"/>
  </linearGradient>
  <path fill="url(#b)" d="M207.8 501.2c-3.6.4-7.1.6-10.8.6-35.5 0-68.8-18.3-87.9-48.2 19.1-29.8 52.4-48.2 87.9-48.2 3.6 0 7.2.2 10.7.6-15.6 10.1-25.9 27.6-25.9 47.6.1 19.9 10.4 37.5 26 47.6zm521.5-296.9c-19.1 0-36.9 10.3-46.5 26.9-2.3 4.1-1 9.3 3.1 11.6 1.3.8 2.8 1.1 4.2 1.1 2.9 0 5.8-1.5 7.3-4.2 6.6-11.4 18.7-18.4 31.8-18.4 13.1 0 25.3 7.1 31.8 18.4 2.3 4.1 7.5 5.5 11.6 3.1s5.4-7.6 3.1-11.6c-9.5-16.6-27.3-26.9-46.4-26.9zm172.5 207.4c1.3 13.8 1.9 27.8 1.9 41.9 0 250.5-202.3 453.5-451.9 453.5C202.3 907.1 0 704 0 453.5 0 203.1 202.3 0 451.9 0c98.4 0 189.5 31.6 263.7 85.2 32-24.9 72.1-39.7 115.6-39.7 104.3 0 189.2 85.2 189.2 189.9.1 79.8-49.1 148.1-118.6 176.3zm-598.5 41.8c0-1.5-.4-3-1.1-4.3-21.7-37.6-62-60.9-105.2-60.9s-83.5 23.3-105.2 60.9c-.7 1.3-1.1 2.8-1.1 4.3s.4 3 1.1 4.3c21.7 37.6 62 60.9 105.2 60.9s83.5-23.4 105.2-60.9c.7-1.3 1.1-2.8 1.1-4.3zm369.3-7.3c-4.1-2.4-9.2-1-11.6 3.1-18.6 32.4-53.3 52.4-90.5 52.4s-71.9-20.1-90.5-52.4c-2.3-4.1-7.5-5.5-11.6-3.1-4 2.4-5.4 7.6-3.1 11.6 21.7 37.6 62 60.9 105.2 60.9s83.5-23.4 105.2-60.9c2.3-4.1 1-9.3-3.1-11.6zm330.9-210.7c0-95.3-77.3-172.9-172.3-172.9S659 140.1 659 235.5c0 95.3 77.3 172.9 172.3 172.9s172.2-77.6 172.2-172.9zm-78.3-4.3c.7 1.3 1.1 2.8 1.1 4.3s-.4 3-1.1 4.3c-9.6 16.6-27.4 26.9-46.5 26.9s-36.9-10.3-46.5-26.9c-1.5-2.6-1.5-5.9 0-8.5 9.6-16.6 27.4-26.9 46.5-26.9s36.9 10.2 46.5 26.8zm-17.5 4.3c-6.7-8.6-16.9-13.8-27.9-14.1 3.1 3.9 5 8.8 5 14.1 0 5.4-1.9 10.3-5 14.1 10.9-.3 21.2-5.6 27.9-14.1z" opacity=".6"/>
</svg>
